<svg width="729" height="485" viewBox="0 0 729 485" fill="none" xmlns="http://www.w3.org/2000/svg">
<rect width="727" height="433" transform="translate(1 52)" fill="#F5F5F5" fill-opacity="0.5" style="mix-blend-mode:luminosity"/>
<g filter="url(#filter0_b_6126_5370)">
<path d="M1 52H728V475C728 480.523 723.523 485 718 485H11C5.47714 485 1 480.523 1 475V52Z" fill="#F5F5F5" fill-opacity="0.5" style="mix-blend-mode:luminosity"/>
</g>
<g filter="url(#filter1_d_6126_5370)">
<g filter="url(#filter2_bi_6126_5370)">
<path d="M1 11C1 4.92487 5.92487 0 12 0H717C723.075 0 728 4.92487 728 11V52H1V11Z" fill="#F5F5F5" fill-opacity="0.8" style="mix-blend-mode:hard-light"/>
</g>
<g opacity="0.5" filter="url(#filter3_bi_6126_5370)">
<path d="M1 11C1 4.92487 5.92487 0 12 0H717C723.075 0 728 4.92487 728 11V52H1V11Z" fill="#F5F5F5" fill-opacity="0.8" style="mix-blend-mode:hard-light"/>
</g>
<circle cx="68" cy="25" r="6" fill="#5FCF65"/>
<circle cx="48" cy="25" r="6" fill="#F8CE52"/>
<circle cx="28" cy="25" r="6" fill="#F96057"/>
<circle cx="28" cy="25" r="5.75" stroke="black" stroke-opacity="0.1" stroke-width="0.5" style="mix-blend-mode:luminosity"/>
<circle cx="48" cy="25" r="5.75" stroke="black" stroke-opacity="0.1" stroke-width="0.5" style="mix-blend-mode:luminosity"/>
<circle cx="68" cy="25" r="5.75" stroke="black" stroke-opacity="0.1" stroke-width="0.5" style="mix-blend-mode:luminosity"/>
<g style="mix-blend-mode:luminosity">
<g style="mix-blend-mode:luminosity">
<path d="M660 33.0156C660.492 33.0156 660.891 32.6094 660.891 32.1484V27.2578H665.656C666.133 27.2578 666.539 26.8594 666.539 26.3672C666.539 25.8828 666.133 25.4766 665.656 25.4766H660.891V20.5859C660.891 20.1172 660.492 19.7188 660 19.7188C659.516 19.7188 659.109 20.1172 659.109 20.5859V25.4766H654.344C653.883 25.4766 653.461 25.8828 653.461 26.3672C653.461 26.8594 653.883 27.2578 654.344 27.2578H659.109V32.1484C659.109 32.6094 659.516 33.0156 660 33.0156Z" fill="#797979"/>
</g>
</g>
<g style="mix-blend-mode:luminosity">
<g style="mix-blend-mode:luminosity">
<path d="M688.586 31.0391H689.914V32.2188C689.914 33.8906 690.797 34.7656 692.484 34.7656H700.406C702.094 34.7656 702.977 33.8906 702.977 32.2188V24.2422C702.977 22.5703 702.094 21.6953 700.406 21.6953H699.078V20.5234C699.078 18.8516 698.195 17.9766 696.508 17.9766H688.586C686.891 17.9766 686.016 18.8516 686.016 20.5234V28.4922C686.016 30.1719 686.891 31.0391 688.586 31.0391ZM688.688 29.4844C687.969 29.4844 687.57 29.1094 687.57 28.3516V20.6641C687.57 19.9062 687.969 19.5391 688.688 19.5391H696.406C697.117 19.5391 697.523 19.9062 697.523 20.6641V21.6953H692.484C690.797 21.6953 689.914 22.5703 689.914 24.2422V29.4844H688.688ZM692.586 33.2031C691.867 33.2031 691.477 32.8281 691.477 32.0781V24.3828C691.477 23.6328 691.867 23.2578 692.586 23.2578H700.305C701.023 23.2578 701.422 23.6328 701.422 24.3828V32.0781C701.422 32.8281 701.023 33.2031 700.305 33.2031H692.586Z" fill="#797979"/>
</g>
</g>
<g style="mix-blend-mode:luminosity">
<path d="M102.812 33.6719H116.18C117.875 33.6719 118.758 32.7969 118.758 31.125V21.6172C118.758 19.9453 117.875 19.0703 116.18 19.0703H102.812C101.125 19.0703 100.242 19.9375 100.242 21.6172V31.125C100.242 32.7969 101.125 33.6719 102.812 33.6719ZM102.914 32.1172C102.195 32.1172 101.797 31.7422 101.797 30.9844V21.7578C101.797 21 102.195 20.625 102.914 20.625H106.477V32.1172H102.914ZM116.078 20.625C116.797 20.625 117.195 21 117.195 21.7578V30.9844C117.195 31.7422 116.797 32.1172 116.078 32.1172H107.953V20.625H116.078ZM104.945 23.4844C105.227 23.4844 105.461 23.2422 105.461 22.9766C105.461 22.7109 105.227 22.4766 104.945 22.4766H103.344C103.062 22.4766 102.828 22.7109 102.828 22.9766C102.828 23.2422 103.062 23.4844 103.344 23.4844H104.945ZM104.945 25.5859C105.227 25.5859 105.461 25.3516 105.461 25.0781C105.461 24.8125 105.227 24.5781 104.945 24.5781H103.344C103.062 24.5781 102.828 24.8125 102.828 25.0781C102.828 25.3516 103.062 25.5859 103.344 25.5859H104.945ZM104.945 27.6797C105.227 27.6797 105.461 27.4531 105.461 27.1797C105.461 26.9141 105.227 26.6875 104.945 26.6875H103.344C103.062 26.6875 102.828 26.9141 102.828 27.1797C102.828 27.4531 103.062 27.6797 103.344 27.6797H104.945Z" fill="#797979"/>
</g>
<rect x="287" y="13" width="191" height="26" rx="4" fill="black" fill-opacity="0.05"/>
<g opacity="0.5">
<g style="mix-blend-mode:luminosity">
<path d="M368.94 29.998C369.949 29.998 370.895 29.6934 371.682 29.1729L374.462 31.9595C374.646 32.1372 374.881 32.2261 375.135 32.2261C375.662 32.2261 376.049 31.8135 376.049 31.293C376.049 31.0518 375.967 30.8169 375.789 30.6392L373.028 27.8652C373.599 27.0591 373.936 26.0688 373.936 25.0024C373.936 22.2539 371.688 20.0068 368.94 20.0068C366.198 20.0068 363.944 22.2539 363.944 25.0024C363.944 27.751 366.191 29.998 368.94 29.998ZM368.94 28.665C366.928 28.665 365.277 27.0146 365.277 25.0024C365.277 22.9966 366.928 21.3398 368.94 21.3398C370.952 21.3398 372.603 22.9966 372.603 25.0024C372.603 27.0146 370.952 28.665 368.94 28.665Z" fill="#797979"/>
</g>
<g style="mix-blend-mode:luminosity">
<path d="M383.533 30.7979H382.332L385.804 21.3433H386.986L390.457 30.7979H389.257L386.432 22.839H386.358L383.533 30.7979ZM383.976 27.1047H388.814V28.1203H383.976V27.1047ZM391.782 33.4569V23.7069H392.835V24.8334H392.964C393.044 24.7103 393.155 24.5533 393.297 24.3625C393.441 24.1686 393.647 23.9962 393.915 23.8454C394.186 23.6916 394.552 23.6146 395.014 23.6146C395.611 23.6146 396.137 23.7639 396.593 24.0624C397.048 24.3609 397.404 24.7841 397.659 25.3319C397.915 25.8798 398.042 26.5261 398.042 27.2709C398.042 28.0218 397.915 28.6727 397.659 29.2236C397.404 29.7715 397.05 30.1962 396.597 30.4978C396.145 30.7963 395.623 30.9456 395.032 30.9456C394.577 30.9456 394.212 30.8702 393.938 30.7194C393.664 30.5655 393.453 30.3916 393.306 30.1977C393.158 30.0007 393.044 29.8376 392.964 29.7084H392.872V33.4569H391.782ZM392.853 27.2524C392.853 27.7879 392.932 28.2603 393.089 28.6697C393.246 29.0759 393.475 29.3944 393.777 29.6253C394.078 29.853 394.448 29.9669 394.885 29.9669C395.34 29.9669 395.72 29.8469 396.025 29.6068C396.333 29.3637 396.563 29.0374 396.717 28.6281C396.874 28.2157 396.953 27.7571 396.953 27.2524C396.953 26.7538 396.876 26.3045 396.722 25.9044C396.571 25.5012 396.342 25.1827 396.034 24.9488C395.729 24.7118 395.346 24.5933 394.885 24.5933C394.441 24.5933 394.069 24.7056 393.767 24.9303C393.466 25.1519 393.238 25.4627 393.084 25.8628C392.93 26.2599 392.853 26.723 392.853 27.2524ZM399.704 33.4569V23.7069H400.757V24.8334H400.886C400.966 24.7103 401.077 24.5533 401.218 24.3625C401.363 24.1686 401.569 23.9962 401.837 23.8454C402.108 23.6916 402.474 23.6146 402.936 23.6146C403.533 23.6146 404.059 23.7639 404.515 24.0624C404.97 24.3609 405.326 24.7841 405.581 25.3319C405.836 25.8798 405.964 26.5261 405.964 27.2709C405.964 28.0218 405.836 28.6727 405.581 29.2236C405.326 29.7715 404.972 30.1962 404.519 30.4978C404.067 30.7963 403.545 30.9456 402.954 30.9456C402.499 30.9456 402.134 30.8702 401.86 30.7194C401.586 30.5655 401.375 30.3916 401.228 30.1977C401.08 30.0007 400.966 29.8376 400.886 29.7084H400.794V33.4569H399.704ZM400.775 27.2524C400.775 27.7879 400.854 28.2603 401.011 28.6697C401.168 29.0759 401.397 29.3944 401.699 29.6253C402 29.853 402.369 29.9669 402.806 29.9669C403.262 29.9669 403.642 29.8469 403.947 29.6068C404.254 29.3637 404.485 29.0374 404.639 28.6281C404.796 28.2157 404.875 27.7571 404.875 27.2524C404.875 26.7538 404.798 26.3045 404.644 25.9044C404.493 25.5012 404.264 25.1827 403.956 24.9488C403.651 24.7118 403.268 24.5933 402.806 24.5933C402.363 24.5933 401.991 24.7056 401.689 24.9303C401.388 25.1519 401.16 25.4627 401.006 25.8628C400.852 26.2599 400.775 26.723 400.775 27.2524Z" fill="#797979"/>
</g>
</g>
<g style="mix-blend-mode:luminosity">
<path d="M266.5 34.5C266.641 34.5 266.852 34.4531 267.047 34.3438C271.547 31.8984 273.109 30.7656 273.109 27.9219V22.0234C273.109 21.0859 272.742 20.75 271.961 20.4141C271.094 20.0469 268.18 19.0312 267.328 18.7422C267.07 18.6562 266.766 18.6016 266.5 18.6016C266.234 18.6016 265.93 18.6719 265.672 18.7422C264.82 18.9844 261.906 20.0547 261.039 20.4141C260.258 20.7422 259.891 21.0859 259.891 22.0234V27.9219C259.891 30.7656 261.461 31.8828 265.945 34.3438C266.148 34.4531 266.359 34.5 266.5 34.5ZM266.922 20.1797C267.945 20.5859 270.172 21.375 271.344 21.7891C271.562 21.875 271.617 21.9922 271.617 22.2734V27.6328C271.617 29.9219 270.469 30.5391 266.945 32.6641C266.727 32.7969 266.617 32.8438 266.508 32.8438V20.0938C266.617 20.0938 266.734 20.1172 266.922 20.1797Z" fill="#797979"/>
</g>
<g style="mix-blend-mode:luminosity" opacity="0.5">
<g style="mix-blend-mode:luminosity">
<path d="M462.273 24.9766C462.5 24.9766 462.68 24.9062 462.82 24.7578L466.023 21.5312C466.195 21.3594 466.273 21.1719 466.273 20.9531C466.273 20.7422 466.188 20.5391 466.023 20.3828L462.82 17.125C462.68 16.9688 462.5 16.8906 462.273 16.8906C461.852 16.8906 461.516 17.2422 461.516 17.6719C461.516 17.8828 461.594 18.0547 461.727 18.2031L463.594 20.0312C463.227 19.9766 462.852 19.9453 462.477 19.9453C458.609 19.9453 455.516 23.0391 455.516 26.9141C455.516 30.7891 458.633 33.9062 462.5 33.9062C466.375 33.9062 469.484 30.7891 469.484 26.9141C469.484 26.4453 469.156 26.1094 468.688 26.1094C468.234 26.1094 467.93 26.4453 467.93 26.9141C467.93 29.9297 465.516 32.3516 462.5 32.3516C459.492 32.3516 457.07 29.9297 457.07 26.9141C457.07 23.875 459.469 21.4688 462.477 21.4688C462.984 21.4688 463.453 21.5078 463.867 21.5781L461.734 23.6875C461.594 23.8281 461.516 24 461.516 24.2109C461.516 24.6406 461.852 24.9766 462.273 24.9766Z" fill="#797979"/>
</g>
</g>
<g style="mix-blend-mode:luminosity">
<path d="M623.508 28.4141C623.906 28.4141 624.234 28.0859 624.234 27.6953V19.8359L624.18 18.6797L624.656 19.25L625.75 20.4141C625.875 20.5547 626.055 20.625 626.234 20.625C626.594 20.625 626.891 20.3672 626.891 20C626.891 19.8047 626.812 19.6641 626.68 19.5312L624.062 17.0078C623.875 16.8203 623.695 16.7578 623.508 16.7578C623.312 16.7578 623.141 16.8203 622.953 17.0078L620.328 19.5312C620.195 19.6641 620.117 19.8047 620.117 20C620.117 20.3672 620.406 20.625 620.766 20.625C620.945 20.625 621.133 20.5547 621.258 20.4141L622.352 19.25L622.836 18.6719L622.773 19.8359V27.6953C622.773 28.0859 623.102 28.4141 623.508 28.4141ZM619 34.6562H628C629.695 34.6562 630.57 33.7812 630.57 32.1094V24.4297C630.57 22.7578 629.695 21.8828 628 21.8828H625.891V23.4375H627.898C628.609 23.4375 629.016 23.8125 629.016 24.5625V31.9688C629.016 32.7188 628.609 33.0938 627.898 33.0938H619.102C618.383 33.0938 617.984 32.7188 617.984 31.9688V24.5625C617.984 23.8125 618.383 23.4375 619.102 23.4375H621.133V21.8828H619C617.312 21.8828 616.43 22.75 616.43 24.4297V32.1094C616.43 33.7812 617.312 34.6562 619 34.6562Z" fill="#797979"/>
</g>
<g style="mix-blend-mode:luminosity">
<path d="M146.406 33.0234L140.328 27.0781C140.117 26.8672 140.008 26.6328 140.008 26.3594C140.008 26.0859 140.117 25.8359 140.336 25.6328L146.414 19.6953C146.586 19.5234 146.805 19.4297 147.055 19.4297C147.578 19.4297 147.984 19.8359 147.984 20.3516C147.984 20.6016 147.883 20.8438 147.703 21.0234L142.234 26.3516L147.703 31.6953C147.883 31.875 147.984 32.1094 147.984 32.3672C147.984 32.8828 147.578 33.2891 147.055 33.2891C146.805 33.2891 146.586 33.1953 146.406 33.0234Z" fill="#797979"/>
</g>
<g style="mix-blend-mode:luminosity">
<path d="M170.938 33.2812C171.195 33.2812 171.406 33.1875 171.586 33.0156L177.664 27.0781C177.875 26.8594 177.984 26.6328 177.984 26.3516C177.984 26.0781 177.883 25.8359 177.664 25.6328L171.586 19.6875C171.406 19.5156 171.195 19.4219 170.938 19.4219C170.414 19.4219 170.008 19.8281 170.008 20.3438C170.008 20.5938 170.117 20.8359 170.289 21.0156L175.766 26.3594L170.289 31.6875C170.109 31.875 170.008 32.1016 170.008 32.3594C170.008 32.875 170.414 33.2812 170.938 33.2812Z" fill="#797979"/>
</g>
</g>
<defs>
<filter id="filter0_b_6126_5370" x="-80.5485" y="-29.5485" width="890.097" height="596.097" filterUnits="userSpaceOnUse" color-interpolation-filters="sRGB">
<feFlood flood-opacity="0" result="BackgroundImageFix"/>
<feGaussianBlur in="BackgroundImageFix" stdDeviation="40.7742"/>
<feComposite in2="SourceAlpha" operator="in" result="effect1_backgroundBlur_6126_5370"/>
<feBlend mode="normal" in="SourceGraphic" in2="effect1_backgroundBlur_6126_5370" result="shape"/>
</filter>
<filter id="filter1_d_6126_5370" x="0" y="0" width="729" height="54" filterUnits="userSpaceOnUse" color-interpolation-filters="sRGB">
<feFlood flood-opacity="0" result="BackgroundImageFix"/>
<feColorMatrix in="SourceAlpha" type="matrix" values="0 0 0 0 0 0 0 0 0 0 0 0 0 0 0 0 0 0 127 0" result="hardAlpha"/>
<feOffset dy="1"/>
<feGaussianBlur stdDeviation="0.5"/>
<feColorMatrix type="matrix" values="0 0 0 0 0 0 0 0 0 0 0 0 0 0 0 0 0 0 0.05 0"/>
<feBlend mode="normal" in2="BackgroundImageFix" result="effect1_dropShadow_6126_5370"/>
<feBlend mode="normal" in="SourceGraphic" in2="effect1_dropShadow_6126_5370" result="shape"/>
</filter>
<filter id="filter2_bi_6126_5370" x="-80.5485" y="-81.5485" width="890.097" height="215.097" filterUnits="userSpaceOnUse" color-interpolation-filters="sRGB">
<feFlood flood-opacity="0" result="BackgroundImageFix"/>
<feGaussianBlur in="BackgroundImageFix" stdDeviation="40.7742"/>
<feComposite in2="SourceAlpha" operator="in" result="effect1_backgroundBlur_6126_5370"/>
<feBlend mode="normal" in="SourceGraphic" in2="effect1_backgroundBlur_6126_5370" result="shape"/>
<feColorMatrix in="SourceAlpha" type="matrix" values="0 0 0 0 0 0 0 0 0 0 0 0 0 0 0 0 0 0 127 0" result="hardAlpha"/>
<feOffset dy="1"/>
<feGaussianBlur stdDeviation="1.5"/>
<feComposite in2="hardAlpha" operator="arithmetic" k2="-1" k3="1"/>
<feColorMatrix type="matrix" values="0 0 0 0 1 0 0 0 0 1 0 0 0 0 1 0 0 0 0.5 0"/>
<feBlend mode="normal" in2="shape" result="effect2_innerShadow_6126_5370"/>
</filter>
<filter id="filter3_bi_6126_5370" x="-80.5485" y="-81.5485" width="890.097" height="215.097" filterUnits="userSpaceOnUse" color-interpolation-filters="sRGB">
<feFlood flood-opacity="0" result="BackgroundImageFix"/>
<feGaussianBlur in="BackgroundImageFix" stdDeviation="40.7742"/>
<feComposite in2="SourceAlpha" operator="in" result="effect1_backgroundBlur_6126_5370"/>
<feBlend mode="normal" in="SourceGraphic" in2="effect1_backgroundBlur_6126_5370" result="shape"/>
<feColorMatrix in="SourceAlpha" type="matrix" values="0 0 0 0 0 0 0 0 0 0 0 0 0 0 0 0 0 0 127 0" result="hardAlpha"/>
<feOffset dy="1"/>
<feGaussianBlur stdDeviation="1.5"/>
<feComposite in2="hardAlpha" operator="arithmetic" k2="-1" k3="1"/>
<feColorMatrix type="matrix" values="0 0 0 0 1 0 0 0 0 1 0 0 0 0 1 0 0 0 0.5 0"/>
<feBlend mode="normal" in2="shape" result="effect2_innerShadow_6126_5370"/>
</filter>
</defs>
</svg>
