<svg width="787" height="545" viewBox="0 0 787 545" fill="none" xmlns="http://www.w3.org/2000/svg">
<g filter="url(#filter0_d_6126_5370)">
<rect width="727" height="433" transform="translate(30 62)" fill="#F5F5F5" fill-opacity="0.5" style="mix-blend-mode:luminosity"/>
<g filter="url(#filter1_b_6126_5370)">
<path d="M30 62H757V485C757 490.523 752.523 495 747 495H40C34.4771 495 30 490.523 30 485V62Z" fill="#F5F5F5" fill-opacity="0.5" style="mix-blend-mode:luminosity"/>
</g>
<g filter="url(#filter2_d_6126_5370)">
<g filter="url(#filter3_bi_6126_5370)">
<path d="M30 21C30 14.9249 34.9249 10 41 10H746C752.075 10 757 14.9249 757 21V62H30V21Z" fill="#F5F5F5" fill-opacity="0.8" style="mix-blend-mode:hard-light"/>
</g>
<g opacity="0.5" filter="url(#filter4_bi_6126_5370)">
<path d="M30 21C30 14.9249 34.9249 10 41 10H746C752.075 10 757 14.9249 757 21V62H30V21Z" fill="#F5F5F5" fill-opacity="0.8" style="mix-blend-mode:hard-light"/>
</g>
<circle cx="97" cy="35" r="6" fill="#5FCF65"/>
<circle cx="77" cy="35" r="6" fill="#F8CE52"/>
<circle cx="57" cy="35" r="6" fill="#F96057"/>
<circle cx="57" cy="35" r="5.75" stroke="black" stroke-opacity="0.1" stroke-width="0.5" style="mix-blend-mode:luminosity"/>
<circle cx="77" cy="35" r="5.75" stroke="black" stroke-opacity="0.1" stroke-width="0.5" style="mix-blend-mode:luminosity"/>
<circle cx="97" cy="35" r="5.75" stroke="black" stroke-opacity="0.1" stroke-width="0.5" style="mix-blend-mode:luminosity"/>
<g style="mix-blend-mode:luminosity">
<g style="mix-blend-mode:luminosity">
<path d="M689 43.0156C689.492 43.0156 689.891 42.6094 689.891 42.1484V37.2578H694.656C695.133 37.2578 695.539 36.8594 695.539 36.3672C695.539 35.8828 695.133 35.4766 694.656 35.4766H689.891V30.5859C689.891 30.1172 689.492 29.7188 689 29.7188C688.516 29.7188 688.109 30.1172 688.109 30.5859V35.4766H683.344C682.883 35.4766 682.461 35.8828 682.461 36.3672C682.461 36.8594 682.883 37.2578 683.344 37.2578H688.109V42.1484C688.109 42.6094 688.516 43.0156 689 43.0156Z" fill="#797979"/>
</g>
</g>
<g style="mix-blend-mode:luminosity">
<g style="mix-blend-mode:luminosity">
<path d="M717.586 41.0391H718.914V42.2188C718.914 43.8906 719.797 44.7656 721.484 44.7656H729.406C731.094 44.7656 731.977 43.8906 731.977 42.2188V34.2422C731.977 32.5703 731.094 31.6953 729.406 31.6953H728.078V30.5234C728.078 28.8516 727.195 27.9766 725.508 27.9766H717.586C715.891 27.9766 715.016 28.8516 715.016 30.5234V38.4922C715.016 40.1719 715.891 41.0391 717.586 41.0391ZM717.688 39.4844C716.969 39.4844 716.57 39.1094 716.57 38.3516V30.6641C716.57 29.9062 716.969 29.5391 717.688 29.5391H725.406C726.117 29.5391 726.523 29.9062 726.523 30.6641V31.6953H721.484C719.797 31.6953 718.914 32.5703 718.914 34.2422V39.4844H717.688ZM721.586 43.2031C720.867 43.2031 720.477 42.8281 720.477 42.0781V34.3828C720.477 33.6328 720.867 33.2578 721.586 33.2578H729.305C730.023 33.2578 730.422 33.6328 730.422 34.3828V42.0781C730.422 42.8281 730.023 43.2031 729.305 43.2031H721.586Z" fill="#797979"/>
</g>
</g>
<g style="mix-blend-mode:luminosity">
<path d="M131.812 43.6719H145.18C146.875 43.6719 147.758 42.7969 147.758 41.125V31.6172C147.758 29.9453 146.875 29.0703 145.18 29.0703H131.812C130.125 29.0703 129.242 29.9375 129.242 31.6172V41.125C129.242 42.7969 130.125 43.6719 131.812 43.6719ZM131.914 42.1172C131.195 42.1172 130.797 41.7422 130.797 40.9844V31.7578C130.797 31 131.195 30.625 131.914 30.625H135.477V42.1172H131.914ZM145.078 30.625C145.797 30.625 146.195 31 146.195 31.7578V40.9844C146.195 41.7422 145.797 42.1172 145.078 42.1172H136.953V30.625H145.078ZM133.945 33.4844C134.227 33.4844 134.461 33.2422 134.461 32.9766C134.461 32.7109 134.227 32.4766 133.945 32.4766H132.344C132.062 32.4766 131.828 32.7109 131.828 32.9766C131.828 33.2422 132.062 33.4844 132.344 33.4844H133.945ZM133.945 35.5859C134.227 35.5859 134.461 35.3516 134.461 35.0781C134.461 34.8125 134.227 34.5781 133.945 34.5781H132.344C132.062 34.5781 131.828 34.8125 131.828 35.0781C131.828 35.3516 132.062 35.5859 132.344 35.5859H133.945ZM133.945 37.6797C134.227 37.6797 134.461 37.4531 134.461 37.1797C134.461 36.9141 134.227 36.6875 133.945 36.6875H132.344C132.062 36.6875 131.828 36.9141 131.828 37.1797C131.828 37.4531 132.062 37.6797 132.344 37.6797H133.945Z" fill="#797979"/>
</g>
<rect x="316" y="23" width="191" height="26" rx="4" fill="black" fill-opacity="0.05"/>
<g opacity="0.5">
<g style="mix-blend-mode:luminosity">
<path d="M397.94 39.998C398.949 39.998 399.895 39.6934 400.682 39.1729L403.462 41.9595C403.646 42.1372 403.881 42.2261 404.135 42.2261C404.662 42.2261 405.049 41.8135 405.049 41.293C405.049 41.0518 404.967 40.8169 404.789 40.6392L402.028 37.8652C402.599 37.0591 402.936 36.0688 402.936 35.0024C402.936 32.2539 400.688 30.0068 397.94 30.0068C395.198 30.0068 392.944 32.2539 392.944 35.0024C392.944 37.751 395.191 39.998 397.94 39.998ZM397.94 38.665C395.928 38.665 394.277 37.0146 394.277 35.0024C394.277 32.9966 395.928 31.3398 397.94 31.3398C399.952 31.3398 401.603 32.9966 401.603 35.0024C401.603 37.0146 399.952 38.665 397.94 38.665Z" fill="#797979"/>
</g>
<g style="mix-blend-mode:luminosity">
<path d="M412.533 40.7979H411.332L414.804 31.3433H415.986L419.457 40.7979H418.257L415.432 32.839H415.358L412.533 40.7979ZM412.976 37.1047H417.814V38.1203H412.976V37.1047ZM420.782 43.4569V33.7069H421.835V34.8334H421.964C422.044 34.7103 422.155 34.5533 422.297 34.3625C422.441 34.1686 422.647 33.9962 422.915 33.8454C423.186 33.6916 423.552 33.6146 424.014 33.6146C424.611 33.6146 425.137 33.7639 425.593 34.0624C426.048 34.3609 426.404 34.7841 426.659 35.3319C426.915 35.8798 427.042 36.5261 427.042 37.2709C427.042 38.0218 426.915 38.6727 426.659 39.2236C426.404 39.7715 426.05 40.1962 425.597 40.4978C425.145 40.7963 424.623 40.9456 424.032 40.9456C423.577 40.9456 423.212 40.8702 422.938 40.7194C422.664 40.5655 422.453 40.3916 422.306 40.1977C422.158 40.0007 422.044 39.8376 421.964 39.7084H421.872V43.4569H420.782ZM421.853 37.2524C421.853 37.7879 421.932 38.2603 422.089 38.6697C422.246 39.0759 422.475 39.3944 422.777 39.6253C423.078 39.853 423.448 39.9669 423.885 39.9669C424.34 39.9669 424.72 39.8469 425.025 39.6068C425.333 39.3637 425.563 39.0374 425.717 38.6281C425.874 38.2157 425.953 37.7571 425.953 37.2524C425.953 36.7538 425.876 36.3045 425.722 35.9044C425.571 35.5012 425.342 35.1827 425.034 34.9488C424.729 34.7118 424.346 34.5933 423.885 34.5933C423.441 34.5933 423.069 34.7056 422.767 34.9303C422.466 35.1519 422.238 35.4627 422.084 35.8628C421.93 36.2599 421.853 36.723 421.853 37.2524ZM428.704 43.4569V33.7069H429.757V34.8334H429.886C429.966 34.7103 430.077 34.5533 430.218 34.3625C430.363 34.1686 430.569 33.9962 430.837 33.8454C431.108 33.6916 431.474 33.6146 431.936 33.6146C432.533 33.6146 433.059 33.7639 433.515 34.0624C433.97 34.3609 434.326 34.7841 434.581 35.3319C434.836 35.8798 434.964 36.5261 434.964 37.2709C434.964 38.0218 434.836 38.6727 434.581 39.2236C434.326 39.7715 433.972 40.1962 433.519 40.4978C433.067 40.7963 432.545 40.9456 431.954 40.9456C431.499 40.9456 431.134 40.8702 430.86 40.7194C430.586 40.5655 430.375 40.3916 430.228 40.1977C430.08 40.0007 429.966 39.8376 429.886 39.7084H429.794V43.4569H428.704ZM429.775 37.2524C429.775 37.7879 429.854 38.2603 430.011 38.6697C430.168 39.0759 430.397 39.3944 430.699 39.6253C431 39.853 431.369 39.9669 431.806 39.9669C432.262 39.9669 432.642 39.8469 432.947 39.6068C433.254 39.3637 433.485 39.0374 433.639 38.6281C433.796 38.2157 433.875 37.7571 433.875 37.2524C433.875 36.7538 433.798 36.3045 433.644 35.9044C433.493 35.5012 433.264 35.1827 432.956 34.9488C432.651 34.7118 432.268 34.5933 431.806 34.5933C431.363 34.5933 430.991 34.7056 430.689 34.9303C430.388 35.1519 430.16 35.4627 430.006 35.8628C429.852 36.2599 429.775 36.723 429.775 37.2524Z" fill="#797979"/>
</g>
</g>
<g style="mix-blend-mode:luminosity">
<path d="M295.5 44.5C295.641 44.5 295.852 44.4531 296.047 44.3438C300.547 41.8984 302.109 40.7656 302.109 37.9219V32.0234C302.109 31.0859 301.742 30.75 300.961 30.4141C300.094 30.0469 297.18 29.0312 296.328 28.7422C296.07 28.6562 295.766 28.6016 295.5 28.6016C295.234 28.6016 294.93 28.6719 294.672 28.7422C293.82 28.9844 290.906 30.0547 290.039 30.4141C289.258 30.7422 288.891 31.0859 288.891 32.0234V37.9219C288.891 40.7656 290.461 41.8828 294.945 44.3438C295.148 44.4531 295.359 44.5 295.5 44.5ZM295.922 30.1797C296.945 30.5859 299.172 31.375 300.344 31.7891C300.562 31.875 300.617 31.9922 300.617 32.2734V37.6328C300.617 39.9219 299.469 40.5391 295.945 42.6641C295.727 42.7969 295.617 42.8438 295.508 42.8438V30.0938C295.617 30.0938 295.734 30.1172 295.922 30.1797Z" fill="#797979"/>
</g>
<g style="mix-blend-mode:luminosity" opacity="0.5">
<g style="mix-blend-mode:luminosity">
<path d="M491.273 34.9766C491.5 34.9766 491.68 34.9062 491.82 34.7578L495.023 31.5312C495.195 31.3594 495.273 31.1719 495.273 30.9531C495.273 30.7422 495.188 30.5391 495.023 30.3828L491.82 27.125C491.68 26.9688 491.5 26.8906 491.273 26.8906C490.852 26.8906 490.516 27.2422 490.516 27.6719C490.516 27.8828 490.594 28.0547 490.727 28.2031L492.594 30.0312C492.227 29.9766 491.852 29.9453 491.477 29.9453C487.609 29.9453 484.516 33.0391 484.516 36.9141C484.516 40.7891 487.633 43.9062 491.5 43.9062C495.375 43.9062 498.484 40.7891 498.484 36.9141C498.484 36.4453 498.156 36.1094 497.688 36.1094C497.234 36.1094 496.93 36.4453 496.93 36.9141C496.93 39.9297 494.516 42.3516 491.5 42.3516C488.492 42.3516 486.07 39.9297 486.07 36.9141C486.07 33.875 488.469 31.4688 491.477 31.4688C491.984 31.4688 492.453 31.5078 492.867 31.5781L490.734 33.6875C490.594 33.8281 490.516 34 490.516 34.2109C490.516 34.6406 490.852 34.9766 491.273 34.9766Z" fill="#797979"/>
</g>
</g>
<g style="mix-blend-mode:luminosity">
<path d="M652.508 38.4141C652.906 38.4141 653.234 38.0859 653.234 37.6953V29.8359L653.18 28.6797L653.656 29.25L654.75 30.4141C654.875 30.5547 655.055 30.625 655.234 30.625C655.594 30.625 655.891 30.3672 655.891 30C655.891 29.8047 655.812 29.6641 655.68 29.5312L653.062 27.0078C652.875 26.8203 652.695 26.7578 652.508 26.7578C652.312 26.7578 652.141 26.8203 651.953 27.0078L649.328 29.5312C649.195 29.6641 649.117 29.8047 649.117 30C649.117 30.3672 649.406 30.625 649.766 30.625C649.945 30.625 650.133 30.5547 650.258 30.4141L651.352 29.25L651.836 28.6719L651.773 29.8359V37.6953C651.773 38.0859 652.102 38.4141 652.508 38.4141ZM648 44.6562H657C658.695 44.6562 659.57 43.7812 659.57 42.1094V34.4297C659.57 32.7578 658.695 31.8828 657 31.8828H654.891V33.4375H656.898C657.609 33.4375 658.016 33.8125 658.016 34.5625V41.9688C658.016 42.7188 657.609 43.0938 656.898 43.0938H648.102C647.383 43.0938 646.984 42.7188 646.984 41.9688V34.5625C646.984 33.8125 647.383 33.4375 648.102 33.4375H650.133V31.8828H648C646.312 31.8828 645.43 32.75 645.43 34.4297V42.1094C645.43 43.7812 646.312 44.6562 648 44.6562Z" fill="#797979"/>
</g>
<g style="mix-blend-mode:luminosity">
<path d="M175.406 43.0234L169.328 37.0781C169.117 36.8672 169.008 36.6328 169.008 36.3594C169.008 36.0859 169.117 35.8359 169.336 35.6328L175.414 29.6953C175.586 29.5234 175.805 29.4297 176.055 29.4297C176.578 29.4297 176.984 29.8359 176.984 30.3516C176.984 30.6016 176.883 30.8438 176.703 31.0234L171.234 36.3516L176.703 41.6953C176.883 41.875 176.984 42.1094 176.984 42.3672C176.984 42.8828 176.578 43.2891 176.055 43.2891C175.805 43.2891 175.586 43.1953 175.406 43.0234Z" fill="#797979"/>
</g>
<g style="mix-blend-mode:luminosity">
<path d="M199.938 43.2812C200.195 43.2812 200.406 43.1875 200.586 43.0156L206.664 37.0781C206.875 36.8594 206.984 36.6328 206.984 36.3516C206.984 36.0781 206.883 35.8359 206.664 35.6328L200.586 29.6875C200.406 29.5156 200.195 29.4219 199.938 29.4219C199.414 29.4219 199.008 29.8281 199.008 30.3438C199.008 30.5938 199.117 30.8359 199.289 31.0156L204.766 36.3594L199.289 41.6875C199.109 41.875 199.008 42.1016 199.008 42.3594C199.008 42.875 199.414 43.2812 199.938 43.2812Z" fill="#797979"/>
</g>
</g>
</g>
<defs>
<filter id="filter0_d_6126_5370" x="0" y="0" width="787" height="545" filterUnits="userSpaceOnUse" color-interpolation-filters="sRGB">
<feFlood flood-opacity="0" result="BackgroundImageFix"/>
<feColorMatrix in="SourceAlpha" type="matrix" values="0 0 0 0 0 0 0 0 0 0 0 0 0 0 0 0 0 0 127 0" result="hardAlpha"/>
<feOffset dy="20"/>
<feGaussianBlur stdDeviation="15"/>
<feColorMatrix type="matrix" values="0 0 0 0 0 0 0 0 0 0 0 0 0 0 0 0 0 0 0.2 0"/>
<feBlend mode="normal" in2="BackgroundImageFix" result="effect1_dropShadow_6126_5370"/>
<feBlend mode="normal" in="SourceGraphic" in2="effect1_dropShadow_6126_5370" result="shape"/>
</filter>
<filter id="filter1_b_6126_5370" x="-51.5485" y="-19.5485" width="890.097" height="596.097" filterUnits="userSpaceOnUse" color-interpolation-filters="sRGB">
<feFlood flood-opacity="0" result="BackgroundImageFix"/>
<feGaussianBlur in="BackgroundImageFix" stdDeviation="40.7742"/>
<feComposite in2="SourceAlpha" operator="in" result="effect1_backgroundBlur_6126_5370"/>
<feBlend mode="normal" in="SourceGraphic" in2="effect1_backgroundBlur_6126_5370" result="shape"/>
</filter>
<filter id="filter2_d_6126_5370" x="29" y="10" width="729" height="54" filterUnits="userSpaceOnUse" color-interpolation-filters="sRGB">
<feFlood flood-opacity="0" result="BackgroundImageFix"/>
<feColorMatrix in="SourceAlpha" type="matrix" values="0 0 0 0 0 0 0 0 0 0 0 0 0 0 0 0 0 0 127 0" result="hardAlpha"/>
<feOffset dy="1"/>
<feGaussianBlur stdDeviation="0.5"/>
<feColorMatrix type="matrix" values="0 0 0 0 0 0 0 0 0 0 0 0 0 0 0 0 0 0 0.05 0"/>
<feBlend mode="normal" in2="BackgroundImageFix" result="effect1_dropShadow_6126_5370"/>
<feBlend mode="normal" in="SourceGraphic" in2="effect1_dropShadow_6126_5370" result="shape"/>
</filter>
<filter id="filter3_bi_6126_5370" x="-51.5485" y="-71.5485" width="890.097" height="215.097" filterUnits="userSpaceOnUse" color-interpolation-filters="sRGB">
<feFlood flood-opacity="0" result="BackgroundImageFix"/>
<feGaussianBlur in="BackgroundImageFix" stdDeviation="40.7742"/>
<feComposite in2="SourceAlpha" operator="in" result="effect1_backgroundBlur_6126_5370"/>
<feBlend mode="normal" in="SourceGraphic" in2="effect1_backgroundBlur_6126_5370" result="shape"/>
<feColorMatrix in="SourceAlpha" type="matrix" values="0 0 0 0 0 0 0 0 0 0 0 0 0 0 0 0 0 0 127 0" result="hardAlpha"/>
<feOffset dy="1"/>
<feGaussianBlur stdDeviation="1.5"/>
<feComposite in2="hardAlpha" operator="arithmetic" k2="-1" k3="1"/>
<feColorMatrix type="matrix" values="0 0 0 0 1 0 0 0 0 1 0 0 0 0 1 0 0 0 0.5 0"/>
<feBlend mode="normal" in2="shape" result="effect2_innerShadow_6126_5370"/>
</filter>
<filter id="filter4_bi_6126_5370" x="-51.5485" y="-71.5485" width="890.097" height="215.097" filterUnits="userSpaceOnUse" color-interpolation-filters="sRGB">
<feFlood flood-opacity="0" result="BackgroundImageFix"/>
<feGaussianBlur in="BackgroundImageFix" stdDeviation="40.7742"/>
<feComposite in2="SourceAlpha" operator="in" result="effect1_backgroundBlur_6126_5370"/>
<feBlend mode="normal" in="SourceGraphic" in2="effect1_backgroundBlur_6126_5370" result="shape"/>
<feColorMatrix in="SourceAlpha" type="matrix" values="0 0 0 0 0 0 0 0 0 0 0 0 0 0 0 0 0 0 127 0" result="hardAlpha"/>
<feOffset dy="1"/>
<feGaussianBlur stdDeviation="1.5"/>
<feComposite in2="hardAlpha" operator="arithmetic" k2="-1" k3="1"/>
<feColorMatrix type="matrix" values="0 0 0 0 1 0 0 0 0 1 0 0 0 0 1 0 0 0 0.5 0"/>
<feBlend mode="normal" in2="shape" result="effect2_innerShadow_6126_5370"/>
</filter>
</defs>
</svg>
