<svg width="65" height="65" viewBox="0 0 65 65" fill="none" xmlns="http://www.w3.org/2000/svg">
<g clip-path="url(#clip0_6125_4115)">
<mask id="mask0_6125_4115" style="mask-type:luminance" maskUnits="userSpaceOnUse" x="0" y="0" width="65" height="65">
<path d="M64.4512 0.552734H0.451172V64.5527H64.4512V0.552734Z" fill="white"/>
</mask>
<g mask="url(#mask0_6125_4115)">
<path d="M28.7912 54.1711L7.32617 23.4951H21.3262L37.4512 47.5531L28.7912 54.1711Z" fill="#B5C4DF"/>
<path d="M28.7912 54.1711L7.32617 23.4951H21.3262L37.4512 47.5531L28.7912 54.1711Z" stroke="#8D6C9F" stroke-width="2" stroke-miterlimit="10"/>
<path d="M19.1389 16.5266L38.1102 15.4729L38.554 23.4613L19.5832 24.513L19.1389 16.5266Z" fill="#B5C4DF"/>
<path d="M19.1389 16.5266L38.1102 15.4729L38.554 23.4613L19.5832 24.513L19.1389 16.5266Z" stroke="#8D6C9F" stroke-width="2" stroke-miterlimit="10"/>
<path d="M44.7626 27.1149L43.8757 11.1444L39.3018 12.9353C38.4999 13.2518 37.9911 14.0474 38.0407 14.9088L38.5457 24.0155C38.5928 24.8743 39.1842 25.607 40.0141 25.8349L44.7626 27.1149Z" fill="#F8DD8F"/>
<path d="M44.7626 27.1149L43.8757 11.1444L39.3018 12.9353C38.4999 13.2518 37.9911 14.0474 38.0407 14.9088L38.5457 24.0155C38.5928 24.8743 39.1842 25.607 40.0141 25.8349L44.7626 27.1149Z" stroke="#8D6C9F" stroke-width="2" stroke-miterlimit="10"/>
<path d="M47.897 10.9236L48.7847 26.8952C48.848 27.9986 48.0056 28.943 46.9022 29.0063C46.8918 29.0072 46.8816 29.0071 46.8714 29.007C45.7693 29.0696 44.826 28.2264 44.7623 27.125L43.8762 11.1455C43.8137 10.0434 44.6569 9.10008 45.7592 9.03658C46.8606 8.95856 47.8159 9.78788 47.8947 10.8904C47.8954 10.9018 47.8963 10.9122 47.897 10.9236Z" fill="#B5C4DF"/>
<path d="M47.897 10.9236L48.7847 26.8952C48.848 27.9986 48.0056 28.943 46.9022 29.0063C46.8918 29.0072 46.8816 29.0071 46.8714 29.007C45.7693 29.0696 44.826 28.2264 44.7623 27.125L43.8762 11.1455C43.8137 10.0434 44.6569 9.10008 45.7592 9.03658C46.8606 8.95856 47.8159 9.78788 47.8947 10.8904C47.8954 10.9018 47.8963 10.9122 47.897 10.9236Z" stroke="#8D6C9F" stroke-width="2" stroke-miterlimit="10"/>
<path d="M48.5166 11.6249L54.3783 9.1213C54.624 9.00209 54.9071 8.98677 55.1632 9.08124L61.2996 11.4181C61.6733 11.5556 61.9315 11.9028 61.9534 12.3008L62.0639 14.3161C62.0944 14.8681 61.6738 15.3399 61.1226 15.3717C61.0224 15.3773 60.922 15.3685 60.8269 15.3445L55.427 14.02C55.1645 13.961 54.8895 14.0097 54.6646 14.1567L48.2257 17.9494L47.9687 12.5829C47.943 12.1832 48.159 11.8054 48.5166 11.6249ZM49.3234 26.1278L55.4122 27.8925C55.6683 27.987 55.9522 27.9728 56.198 27.8526L62.0228 24.8152C62.3625 24.6421 62.5743 24.29 62.5685 23.9077L62.4731 21.8342C62.4423 21.2832 61.9701 20.8605 61.4184 20.8901C61.3254 20.8952 61.2338 20.9128 61.1457 20.9434L55.9292 22.9332C55.6746 23.0219 55.3951 23.0043 55.1547 22.8835L48.3599 19.9391L48.6545 25.2726C48.69 25.6642 48.9518 25.9999 49.3234 26.1278Z" fill="#F8DD8F"/>
<path d="M48.5166 11.6249L54.3783 9.1213C54.624 9.00209 54.9071 8.98677 55.1632 9.08124L61.2996 11.4181C61.6733 11.5556 61.9315 11.9028 61.9534 12.3008L62.0639 14.3161C62.0944 14.8681 61.6738 15.3399 61.1226 15.3717C61.0224 15.3773 60.922 15.3685 60.8269 15.3445L55.427 14.02C55.1645 13.961 54.8895 14.0097 54.6646 14.1567L48.2257 17.9494L47.9687 12.5829C47.943 12.1832 48.159 11.8054 48.5166 11.6249ZM49.3234 26.1278L55.4122 27.8925C55.6683 27.987 55.9522 27.9728 56.198 27.8526L62.0228 24.8152C62.3625 24.6421 62.5743 24.29 62.5685 23.9077L62.4731 21.8342C62.4423 21.2832 61.9701 20.8605 61.4184 20.8901C61.3254 20.8952 61.2338 20.9128 61.1457 20.9434L55.9292 22.9332C55.6746 23.0219 55.3951 23.0043 55.1547 22.8835L48.3599 19.9391L48.6545 25.2726C48.69 25.6642 48.9518 25.9999 49.3234 26.1278Z" stroke="#8D6C9F" stroke-width="2" stroke-miterlimit="10"/>
<path d="M57.4507 55.5527V59.5527C57.4667 59.6927 57.4667 59.8327 57.4507 59.9727C57.2497 60.9107 56.4097 61.5737 55.4507 61.5527H5.4507C4.4917 61.5737 3.6517 60.9107 3.4507 59.9727C3.4357 59.8327 3.4357 59.6927 3.4507 59.5527V55.5527C3.4507 53.3437 5.2417 51.5527 7.4507 51.5527H53.4507C55.6597 51.5527 57.4507 53.3437 57.4507 55.5527Z" fill="#C2CDE7"/>
<path d="M57.4512 59.972C57.2502 60.91 56.4102 61.574 55.4512 61.552H5.45117C4.49217 61.574 3.65217 60.91 3.45117 59.972C3.74117 57.992 5.45017 56.531 7.45117 56.552H53.4512C55.4522 56.531 57.1612 57.992 57.4512 59.972Z" fill="#B5C4DF"/>
<path d="M57.4507 55.5527V59.5527C57.4667 59.6927 57.4667 59.8327 57.4507 59.9727C57.2497 60.9107 56.4097 61.5737 55.4507 61.5527H5.4507C4.4917 61.5737 3.6517 60.9107 3.4507 59.9727C3.4357 59.8327 3.4357 59.6927 3.4507 59.5527V55.5527C3.4507 53.3437 5.2417 51.5527 7.4507 51.5527H53.4507C55.6597 51.5527 57.4507 53.3437 57.4507 55.5527Z" stroke="#8D6C9F" stroke-width="2" stroke-miterlimit="10"/>
<path d="M16.4512 51.5527H44.4512L42.7312 48.1027C42.5612 47.7667 42.2182 47.5537 41.8412 47.5527H19.0712C18.6952 47.5537 18.3502 47.7667 18.1812 48.1027L16.4512 51.5527Z" fill="#F8DD8F"/>
<path d="M16.4512 51.5527H44.4512L42.7312 48.1027C42.5612 47.7667 42.2182 47.5537 41.8412 47.5527H19.0712C18.6952 47.5537 18.3502 47.7667 18.1812 48.1027L16.4512 51.5527Z" stroke="#8D6C9F" stroke-width="2" stroke-miterlimit="10"/>
<mask id="mask1_6125_4115" style="mask-type:luminance" maskUnits="userSpaceOnUse" x="3" y="53" width="55" height="7">
<path d="M3.36719 53.2402V59.8662H57.4928V53.2402H3.36719Z" fill="white"/>
</mask>
<g mask="url(#mask1_6125_4115)">
<path d="M16.0527 54.5537C15.5007 54.5537 15.0527 55.0007 15.0527 55.5537V57.5537C15.0527 58.1067 15.5007 58.5537 16.0527 58.5537C16.6047 58.5537 17.0527 58.1067 17.0527 57.5537V55.5537C17.0527 55.0007 16.6047 54.5537 16.0527 54.5537Z" fill="#8D6C9F"/>
<path d="M11.0527 54.5537C10.5007 54.5537 10.0527 55.0007 10.0527 55.5537V57.5537C10.0527 58.1067 10.5007 58.5537 11.0527 58.5537C11.6047 58.5537 12.0527 58.1067 12.0527 57.5537V55.5537C12.0527 55.0007 11.6047 54.5537 11.0527 54.5537Z" fill="#8D6C9F"/>
<path d="M6.05273 54.5537C5.50073 54.5537 5.05273 55.0007 5.05273 55.5537V57.5537C5.05273 58.1067 5.50073 58.5537 6.05273 58.5537C6.60473 58.5537 7.05273 58.1067 7.05273 57.5537V55.5537C7.05273 55.0007 6.60473 54.5537 6.05273 54.5537Z" fill="#8D6C9F"/>
<path d="M31.0527 58.5537C31.6047 58.5537 32.0527 58.1067 32.0527 57.5537V55.5537C32.0527 55.0007 31.6047 54.5537 31.0527 54.5537C30.5007 54.5537 30.0527 55.0007 30.0527 55.5537V57.5537C30.0527 58.1067 30.5007 58.5537 31.0527 58.5537Z" fill="#8D6C9F"/>
<path d="M36.0527 58.5537C36.6057 58.5537 37.0527 58.1067 37.0527 57.5537V55.5537C37.0527 55.0007 36.6057 54.5537 36.0527 54.5537C35.4997 54.5537 35.0527 55.0007 35.0527 55.5537V57.5537C35.0527 58.1067 35.4997 58.5537 36.0527 58.5537Z" fill="#8D6C9F"/>
<path d="M41.0527 58.5537C41.6057 58.5537 42.0527 58.1067 42.0527 57.5537V55.5537C42.0527 55.0007 41.6057 54.5537 41.0527 54.5537C40.4997 54.5537 40.0527 55.0007 40.0527 55.5537V57.5537C40.0527 58.1067 40.4997 58.5537 41.0527 58.5537Z" fill="#8D6C9F"/>
<path d="M46.0527 58.5537C46.6057 58.5537 47.0527 58.1067 47.0527 57.5537V55.5537C47.0527 55.0007 46.6057 54.5537 46.0527 54.5537C45.4997 54.5537 45.0527 55.0007 45.0527 55.5537V57.5537C45.0527 58.1067 45.4997 58.5537 46.0527 58.5537Z" fill="#8D6C9F"/>
<path d="M51.0527 58.5537C51.6057 58.5537 52.0527 58.1067 52.0527 57.5537V55.5537C52.0527 55.0007 51.6057 54.5537 51.0527 54.5537C50.4997 54.5537 50.0527 55.0007 50.0527 55.5537V57.5537C50.0527 58.1067 50.4997 58.5537 51.0527 58.5537Z" fill="#8D6C9F"/>
<path d="M56.0527 58.5537C56.6057 58.5537 57.0527 58.1067 57.0527 57.5537V55.5537C57.0527 55.0007 56.6057 54.5537 56.0527 54.5537C55.4997 54.5537 55.0527 55.0007 55.0527 55.5537V57.5537C55.0527 58.1067 55.4997 58.5537 56.0527 58.5537Z" fill="#8D6C9F"/>
<path d="M21.0527 58.5537C21.6047 58.5537 22.0527 58.1067 22.0527 57.5537V55.5537C22.0527 55.0007 21.6047 54.5537 21.0527 54.5537C20.5007 54.5537 20.0527 55.0007 20.0527 55.5537V57.5537C20.0527 58.1067 20.5007 58.5537 21.0527 58.5537Z" fill="#8D6C9F"/>
<path d="M26.0527 58.5537C26.6047 58.5537 27.0527 58.1067 27.0527 57.5537V55.5537C27.0527 55.0007 26.6047 54.5537 26.0527 54.5537C25.5007 54.5537 25.0527 55.0007 25.0527 55.5537V57.5537C25.0527 58.1067 25.5007 58.5537 26.0527 58.5537Z" fill="#8D6C9F"/>
</g>
<path d="M15.8523 12.7069C10.4465 11.5754 5.14724 15.0402 4.01573 20.4461C2.88423 25.8519 6.34905 31.1512 11.7549 32.2827C17.1608 33.4142 22.46 29.9494 23.5915 24.5435C24.723 19.1377 21.2582 13.8384 15.8523 12.7069Z" fill="#CED7EC"/>
<path d="M8.33244 14.1259C3.71122 17.1483 2.41438 23.344 5.43555 27.966L22.1725 17.0228C19.1502 12.4016 12.9544 11.1047 8.33244 14.1259Z" fill="#DAE1EE"/>
<path d="M14.6222 18.5793C12.46 18.1267 10.3401 19.5128 9.88754 21.6749C9.43498 23.8371 10.8211 25.957 12.9832 26.4096C15.1454 26.8621 17.2653 25.476 17.7179 23.3139C18.1704 21.1518 16.7843 19.0318 14.6222 18.5793Z" fill="#F8DD8F"/>
<path d="M14.6222 18.5793C12.46 18.1267 10.3401 19.5128 9.88754 21.6749C9.43498 23.8371 10.8211 25.957 12.9832 26.4096C15.1454 26.8621 17.2653 25.476 17.7179 23.3139C18.1704 21.1518 16.7843 19.0318 14.6222 18.5793Z" stroke="#8D6C9F" stroke-width="2" stroke-miterlimit="10"/>
<path d="M14.8275 17.6005C12.1251 17.0349 9.47489 18.7677 8.90923 21.4701C8.34358 24.1726 10.0764 26.8228 12.7788 27.3884C15.4813 27.9541 18.1315 26.2213 18.6971 23.5188C19.2628 20.8164 17.53 18.1662 14.8275 17.6005ZM13.1886 25.4308C11.5667 25.0914 10.5273 23.5017 10.8668 21.8799C11.2063 20.258 12.7959 19.2186 14.4178 19.5581C16.0396 19.8976 17.079 21.4872 16.7395 23.1091C16.4001 24.7309 14.8104 25.7703 13.1886 25.4308Z" fill="#8D6C9F"/>
<path d="M15.8523 12.7069C10.4465 11.5754 5.14724 15.0402 4.01573 20.4461C2.88423 25.8519 6.34905 31.1512 11.7549 32.2827C17.1608 33.4142 22.46 29.9494 23.5915 24.5435C24.723 19.1377 21.2582 13.8384 15.8523 12.7069Z" stroke="#8D6C9F" stroke-width="2" stroke-miterlimit="10"/>
</g>
</g>
<defs>
<clipPath id="clip0_6125_4115">
<rect width="64" height="64" fill="white" transform="translate(0.451172 0.552734)"/>
</clipPath>
</defs>
</svg>
