<svg width="100" height="100" viewBox="0 0 100 100" fill="none" xmlns="http://www.w3.org/2000/svg">
<path d="M44.7909 55.223C44.6847 55.5019 44.5453 55.7427 44.3725 55.9439C44.2013 56.1482 43.9921 56.3067 43.7448 56.4207C43.4975 56.5348 43.1948 56.5903 42.8413 56.5903C42.3452 56.5903 41.9347 56.4825 41.605 56.2687C41.2753 56.0516 41.0122 55.768 40.8156 55.4116C40.6191 55.0583 40.4764 54.6559 40.3876 54.2138C40.2973 53.7718 40.2545 53.3203 40.2545 52.864C40.2545 52.4062 40.2973 51.9578 40.3876 51.5126C40.4764 51.0675 40.6191 50.6682 40.8156 50.3149C41.0122 49.9585 41.2753 49.6749 41.605 49.4578C41.9347 49.2408 42.3468 49.1362 42.8413 49.1362C43.2709 49.1362 43.6243 49.217 43.897 49.3802C44.1696 49.5465 44.3883 49.7367 44.5532 49.9521C44.718 50.1692 44.8322 50.3846 44.8956 50.608C44.959 50.8282 45.0033 51.0041 45.0287 51.1308H49.0991C48.9216 49.4198 48.3225 48.0985 47.3001 47.167C46.2793 46.2354 44.8306 45.7617 42.9554 45.749C41.903 45.749 40.9535 45.9185 40.1118 46.2623C39.2686 46.603 38.5458 47.0862 37.9435 47.7072C37.3412 48.3282 36.8783 49.0744 36.555 49.9505C36.2316 50.8235 36.0684 51.7962 36.0684 52.8593C36.0684 53.859 36.2221 54.7969 36.5249 55.6635C36.8292 56.5332 37.2778 57.281 37.8674 57.9163C38.457 58.5516 39.1751 59.0522 40.0247 59.4198C40.8743 59.7842 41.8507 59.9711 42.9554 59.9711C43.9445 59.9711 44.8258 59.8048 45.5993 59.4768C46.3713 59.1457 47.0211 58.7132 47.5474 58.1745C48.0736 57.6359 48.473 57.0291 48.7457 56.359C49.0183 55.6904 49.1562 55.0091 49.1562 54.3263H45.0461C44.9843 54.6432 44.9003 54.9458 44.7909 55.223Z" fill="black"/>
<path d="M55.9861 54.3091H55.948L53.7226 46.0771H49.5L53.5514 59.6513H58.2305L62.4737 46.0771H58.1734L55.9861 54.3091Z" fill="black"/>
<path d="M66.7811 15H22V86.383H77V24.9033L66.7811 15ZM72.2448 81.6286H26.7552V19.7528H64.3306V27.294H72.2432L72.2448 81.6286Z" fill="black"/>
</svg>
